<svg xmlns="http://www.w3.org/2000/svg" xmlns:xlink="http://www.w3.org/1999/xlink" width="366.01" height="103.929" viewBox="0 0 366.01 103.929">
  <defs>
    <filter id="Path_133" x="209.336" y="0" width="100.41" height="103.929" filterUnits="userSpaceOnUse">
      <feOffset dy="3" input="SourceAlpha"/>
      <feGaussianBlur stdDeviation="3" result="blur"/>
      <feFlood/>
      <feComposite operator="in" in2="blur"/>
      <feComposite in="SourceGraphic"/>
    </filter>
    <filter id="Path_134" x="0" y="29.801" width="248.806" height="67.356" filterUnits="userSpaceOnUse">
      <feOffset dy="3" input="SourceAlpha"/>
      <feGaussianBlur stdDeviation="3" result="blur-2"/>
      <feFlood/>
      <feComposite operator="in" in2="blur-2"/>
      <feComposite in="SourceGraphic"/>
    </filter>
    <filter id="Path_135" x="240.05" y="37.873" width="33.669" height="50.749" filterUnits="userSpaceOnUse">
      <feOffset dy="3" input="SourceAlpha"/>
      <feGaussianBlur stdDeviation="3" result="blur-3"/>
      <feFlood/>
      <feComposite operator="in" in2="blur-3"/>
      <feComposite in="SourceGraphic"/>
    </filter>
    <filter id="Path_136" x="257.6" y="38.339" width="35.392" height="49.973" filterUnits="userSpaceOnUse">
      <feOffset dy="3" input="SourceAlpha"/>
      <feGaussianBlur stdDeviation="3" result="blur-4"/>
      <feFlood/>
      <feComposite operator="in" in2="blur-4"/>
      <feComposite in="SourceGraphic"/>
    </filter>
    <filter id="Path_137" x="276.716" y="38.028" width="36.49" height="50.594" filterUnits="userSpaceOnUse">
      <feOffset dy="3" input="SourceAlpha"/>
      <feGaussianBlur stdDeviation="3" result="blur-5"/>
      <feFlood/>
      <feComposite operator="in" in2="blur-5"/>
      <feComposite in="SourceGraphic"/>
    </filter>
    <filter id="Path_138" x="298.026" y="38.339" width="34.922" height="49.973" filterUnits="userSpaceOnUse">
      <feOffset dy="3" input="SourceAlpha"/>
      <feGaussianBlur stdDeviation="3" result="blur-6"/>
      <feFlood/>
      <feComposite operator="in" in2="blur-6"/>
      <feComposite in="SourceGraphic"/>
    </filter>
    <filter id="Path_140" x="319.138" y="38.296" width="32.97" height="50.057" filterUnits="userSpaceOnUse">
      <feOffset dy="3" input="SourceAlpha"/>
      <feGaussianBlur stdDeviation="3" result="blur-7"/>
      <feFlood/>
      <feComposite operator="in" in2="blur-7"/>
      <feComposite in="SourceGraphic"/>
    </filter>
    <filter id="Path_141" x="332.341" y="37.873" width="33.669" height="50.749" filterUnits="userSpaceOnUse">
      <feOffset dy="3" input="SourceAlpha"/>
      <feGaussianBlur stdDeviation="3" result="blur-8"/>
      <feFlood/>
      <feComposite operator="in" in2="blur-8"/>
      <feComposite in="SourceGraphic"/>
    </filter>
  </defs>
  <g id="Group_128" data-name="Group 128" transform="translate(-725.394 -5561.781)">
    <g transform="matrix(1, 0, 0, 1, 725.39, 5561.78)" filter="url(#Path_133)">
      <path id="Path_133-2" data-name="Path 133" d="M4973.506-2731.892c-10.185,4.656-15.042-.466-14.885-6.674.156-6.364,3.917-22.35,24.914-45.631s39.956-31.507,49.044-31.817c9.244-.155,8.617,8.226,8.3,13.813-.47,5.743-7.364,18-9.244,20.022a3.918,3.918,0,0,0,0-2.639s10.968-17.383,3.447-20.953c-8.148-2.328-22.25,2.639-45.127,25.765-23.033,23.281-24.757,39.113-21.153,43.614s15.826-1.087,15.826-1.087-.783.776-11.125,5.587Zm11.909-6.363s-11.6,5.277-15.042,1.086-1.723-19.4,20.213-41.44c21.78-22.04,35.1-26.7,42.933-24.523,7.051,3.415-3.29,19.866-3.29,19.866a3.914,3.914,0,0,1,0,2.639c1.88-2.018,8.461-13.658,8.774-19.091s.94-13.348-7.834-13.193c-8.618.155-26.794,8.071-46.694,30.266-20.057,22.195-23.661,37.405-23.817,43.458-.157,5.9,4.544,10.865,14.259,6.208,9.872-4.5,10.5-5.277,10.5-5.277Z" transform="translate(-4740.28 2822.02)" fill="#fff"/>
    </g>
    <g transform="matrix(1, 0, 0, 1, 725.39, 5561.78)" filter="url(#Path_134)">
      <path id="Path_134-2" data-name="Path 134" d="M3626.273-2575.665a9.218,9.218,0,0,1-9.245-9.157v-31.042a9.12,9.12,0,0,1,9.245-9.157h221.561a146.449,146.449,0,0,0-18.647,25.92c-8.148,14.745-7.521,23.436-7.521,23.436Zm9.558-6.519h6.268l4.074-18.78c.157-.621.47-2.794,1.1-6.674h.157c.156.776.313,1.863.47,3.1a38.576,38.576,0,0,1,.626,4.191l3.6,18.159h6.111l7.364-35.7h-7.364l-2.821,17.073c-.156,1.552-.313,3.1-.47,4.346a19.16,19.16,0,0,1-.313,3.259h0l-4.544-24.678h-5.641l-3.6,17.073s-.156,1.086-.47,3.1c-.313,2.173-.47,3.57-.627,4.5h0c-.156-.931-.156-1.862-.313-2.793,0-.931-.156-1.863-.156-2.638-.157-.931-.157-1.552-.314-2.173l-3.134-17.073h-7.208Zm35.569,0h7.208v-35.7H3671.4Zm15.2,0h7.051v-16.3a38.125,38.125,0,0,0-.47-5.122l.156-.155,8.775,21.574h6.738v-35.7H3701.8v17.694a14.992,14.992,0,0,0,.626,3.725l-.156.155-8.931-21.574H3686.6Zm30.085,0h7.208v-14.745h6.424v-6.674h-6.424v-7.605h7.207v-6.674h-14.415Zm21.78,0h7.051v-35.7h-7.051Zm15.042,0h14.416v-6.674h-7.365v-8.071h6.425v-6.519h-6.425v-7.76h7.208v-6.674h-14.259Zm21.623,0h14.416v-6.674h-7.365v-29.024h-7.051Zm20.683,0h6.581c9.558,0,14.416-5.588,14.885-16.763q.235-8.148-3.29-13.5c-2.35-3.57-6.111-5.432-11.125-5.432h-7.051Zm12.535-25.92a15.4,15.4,0,0,1,1.88,7.76,19.506,19.506,0,0,1-1.723,8.381,5.487,5.487,0,0,1-5.641,3.415v-22.971a5.916,5.916,0,0,1,5.484,3.415Z" transform="translate(-3608.03 2660.82)" fill="#fff"/>
    </g>
    <g transform="matrix(1, 0, 0, 1, 725.39, 5561.78)" filter="url(#Path_135)">
      <path id="Path_135-2" data-name="Path 135" d="M5156.247-2546.291a5.635,5.635,0,0,0,3.917,1.708,3.962,3.962,0,0,0,3.134-1.4,4.894,4.894,0,0,0,1.41-3.57,7.346,7.346,0,0,0-.783-3.415,30.552,30.552,0,0,0-2.507-3.26,15.621,15.621,0,0,1-2.664-3.415,9.307,9.307,0,0,1-.784-3.725,11.413,11.413,0,0,1,1.254-5.277,9.477,9.477,0,0,1,3.134-3.415,7.555,7.555,0,0,1,4.387-1.242,8.759,8.759,0,0,1,4.387,1.086l-.784,4.346a4.883,4.883,0,0,0-3.447-1.4,4.418,4.418,0,0,0-2.977,1.086,6.291,6.291,0,0,0-1.567,3.415,5.061,5.061,0,0,0,.626,2.638c.47.776,1.41,1.863,2.507,3.415a25.363,25.363,0,0,1,2.664,4.035,7.85,7.85,0,0,1,.783,3.88,10.946,10.946,0,0,1-1.1,4.967,8.484,8.484,0,0,1-3.134,3.88,8.494,8.494,0,0,1-4.858,1.4,6.458,6.458,0,0,1-4.387-1.4Z" transform="translate(-4906.41 2617.17)" fill="#fff"/>
    </g>
    <g transform="matrix(1, 0, 0, 1, 725.39, 5561.78)" filter="url(#Path_136)">
      <path id="Path_136-2" data-name="Path 136" d="M5267.935-2538.339l5.014-31.973h5.8a9.08,9.08,0,0,1,3.761.621,3.045,3.045,0,0,1,2.037,1.863,6.886,6.886,0,0,1,.783,3.414,15.25,15.25,0,0,1-.156,2.328,13.759,13.759,0,0,1-2.037,5.9,6.954,6.954,0,0,1-3.6,2.794,12.808,12.808,0,0,1-5.171.931l-2.194,14.124Zm7.051-17.849a5.7,5.7,0,0,0,3.761-1.086,6.937,6.937,0,0,0,1.724-3.88c0-.931.156-1.552.156-1.863a3.927,3.927,0,0,0-.94-2.949,5.429,5.429,0,0,0-3.134-.776Z" transform="translate(-5001.33 2614.65)" fill="#fff"/>
    </g>
    <g transform="matrix(1, 0, 0, 1, 725.39, 5561.78)" filter="url(#Path_137)">
      <path id="Path_137-2" data-name="Path 137" d="M5390.446-2549.176c.47-3.725.784-7.14,1.41-10.088a31.124,31.124,0,0,1,2.821-8.381,8.409,8.409,0,0,1,5.641-4.5,8.4,8.4,0,0,1,2.193-.155,5.329,5.329,0,0,1,4.858,2.328,9.564,9.564,0,0,1,1.567,5.743v.931c-.313,3.415-.626,6.519-1.1,9.312a42.679,42.679,0,0,1-2.037,7.45,12.452,12.452,0,0,1-3.6,4.967,7.953,7.953,0,0,1-5.328,1.862,5.528,5.528,0,0,1-3.6-1.086,7.5,7.5,0,0,1-2.193-3.1,11.787,11.787,0,0,1-.627-4.19v-1.087Zm4.7-.155v1.4c0,2.949.94,4.346,2.821,4.346,1.41,0,2.35-1.087,3.29-3.259a30.928,30.928,0,0,0,2.038-7.3,71.718,71.718,0,0,0,.94-7.294v-1.242a3.475,3.475,0,0,0,.156-1.086,8.528,8.528,0,0,0-.626-3.57,2.226,2.226,0,0,0-2.194-1.086,3.25,3.25,0,0,0-2.82,2.018,20.811,20.811,0,0,0-1.881,5.277,41.008,41.008,0,0,0-1.1,6.053c-.313,2.018-.47,3.88-.627,5.743Z" transform="translate(-5104.73 2616.33)" fill="#fff"/>
    </g>
    <g transform="matrix(1, 0, 0, 1, 725.39, 5561.78)" filter="url(#Path_138)">
      <path id="Path_138-2" data-name="Path 138" d="M5527.018-2538.339l5.014-31.973h5.954a7.2,7.2,0,0,1,4.544,1.242,5.813,5.813,0,0,1,1.41,4.346,23.5,23.5,0,0,1-.47,4.656,8.786,8.786,0,0,1-1.88,4.036,5.143,5.143,0,0,1-3.448,2.173l3.448,15.521H5537.2l-3.447-15.676h0l-2.507,15.676Zm7.208-17.849a4.381,4.381,0,0,0,4.074-2.173,11.618,11.618,0,0,0,1.1-5.432,3.109,3.109,0,0,0-.784-2.484,6.606,6.606,0,0,0-2.82-.465Z" transform="translate(-5219.99 2614.65)" fill="#fff"/>
    </g>
    <path id="Path_139" data-name="Path 139" d="M5663.212-2570.312h14.259l-.627,3.57h-4.857l-4.544,28.4h-4.387l4.7-28.4h-5.171l.627-3.57Z" transform="translate(-4609.012 8176.432)" fill="#fff"/>
    <g transform="matrix(1, 0, 0, 1, 725.39, 5561.78)" filter="url(#Path_140)">
      <path id="Path_140-2" data-name="Path 140" d="M5663.212-2570.312h14.259l-.627,3.57h-4.857l-4.544,28.4h-4.387l4.7-28.4h-5.171l.627-3.57Z" transform="translate(-5334.41 2614.65)" fill="none" stroke="#fff" stroke-linecap="round" stroke-linejoin="round" stroke-width="0.084"/>
    </g>
    <g transform="matrix(1, 0, 0, 1, 725.39, 5561.78)" filter="url(#Path_141)">
      <path id="Path_141-2" data-name="Path 141" d="M5747.721-2546.291a5.635,5.635,0,0,0,3.917,1.708,3.96,3.96,0,0,0,3.134-1.4,4.89,4.89,0,0,0,1.41-3.57,7.334,7.334,0,0,0-.783-3.415,30.54,30.54,0,0,0-2.507-3.26,22.624,22.624,0,0,1-2.664-3.415,9.29,9.29,0,0,1-.784-3.725,11.425,11.425,0,0,1,1.254-5.277,9.489,9.489,0,0,1,3.133-3.415,7.561,7.561,0,0,1,4.388-1.242,8.757,8.757,0,0,1,4.387,1.086l-.783,4.346a4.629,4.629,0,0,0-3.447-1.4,3.793,3.793,0,0,0-2.82,1.086,5.535,5.535,0,0,0-1.725,3.415,5.066,5.066,0,0,0,.627,2.638c.471.776,1.411,1.863,2.507,3.415a25.4,25.4,0,0,1,2.664,4.035,7.845,7.845,0,0,1,.783,3.88,10.953,10.953,0,0,1-1.1,4.967,8.482,8.482,0,0,1-3.134,3.88,8.492,8.492,0,0,1-4.857,1.4,6.745,6.745,0,0,1-4.388-1.4Z" transform="translate(-5405.6 2617.17)" fill="#fff"/>
    </g>
    <path id="Path_142" data-name="Path 142" d="M3617.06-2728.809h348.315v-86.125H3617.06v86.125Z" transform="translate(-2882.661 8382.884)" fill="none"/>
  </g>
</svg>
